<svg width="31" height="30" viewBox="0 0 31 30" fill="none" xmlns="http://www.w3.org/2000/svg">
<path d="M25.908 12.3363L21.6055 6.19254L23.6542 4.75879L27.9555 10.9025L25.908 12.3363Z" fill="#B2CCFF"/>
<path d="M23.5528 15.5113L21.4028 12.4375L11.1628 19.6075L13.3128 22.6788L11.2653 24.1138L5.53027 15.9213L7.57777 14.4875L9.72777 17.56L19.9678 10.39L17.8178 7.31754L19.8653 5.88379L25.6003 14.075L23.5528 15.51V15.5113Z" fill="#B2CCFF"/>
<path d="M26.5216 8.85381L28.5691 7.42006L27.1354 5.37256L25.0879 6.80631L26.5216 8.85381Z" fill="#B2CCFF"/>
<path d="M9.52529 23.8073L5.22279 17.6636L3.17529 19.0973L7.47654 25.2411L9.52529 23.8073Z" fill="#B2CCFF"/>
<path d="M6.04277 23.194L3.99527 24.6277L2.56152 22.5802L4.60902 21.1465L6.04277 23.194Z" fill="#B2CCFF"/>
</svg>
