<svg width="30" height="30" viewBox="0 0 30 30" fill="none" xmlns="http://www.w3.org/2000/svg">
<path d="M13.4914 3.74764C13.9192 3.40437 14.4514 3.21729 14.9999 3.21729C15.5485 3.21729 16.0806 3.40437 16.5085 3.74764L24.8121 10.4087C25.0936 10.6346 25.3209 10.9208 25.477 11.2463C25.6332 11.5717 25.7142 11.9281 25.7142 12.2891V24.3748C25.7142 25.0141 25.4602 25.6273 25.0081 26.0794C24.556 26.5315 23.9429 26.7855 23.3035 26.7855H20.6249C19.9856 26.7855 19.3724 26.5315 18.9203 26.0794C18.4682 25.6273 18.2142 25.0141 18.2142 24.3748V17.4105C18.2142 17.1974 18.1296 16.993 17.9789 16.8423C17.8282 16.6916 17.6238 16.6069 17.4106 16.6069H12.5892C12.3761 16.6069 12.1717 16.6916 12.021 16.8423C11.8703 16.993 11.7856 17.1974 11.7856 17.4105V24.3748C11.7856 25.0141 11.5317 25.6273 11.0796 26.0794C10.6275 26.5315 10.0143 26.7855 9.37493 26.7855H6.69636C6.057 26.7855 5.44382 26.5315 4.99173 26.0794C4.53963 25.6273 4.28564 25.0141 4.28564 24.3748V12.2891C4.28564 11.5573 4.61779 10.8662 5.18779 10.4087L13.4914 3.74764Z" fill="#457AE4"/>
</svg>
