<svg width="25" height="24" viewBox="0 0 31 30" fill="none" xmlns="http://www.w3.org/2000/svg">
<path d="M5.7627 28.125H24.5127V23.4375C24.5107 21.6976 23.8187 20.0296 22.5884 18.7993C21.3581 17.569 19.6901 16.877 17.9502 16.875H12.3252C10.5853 16.877 8.91728 17.569 7.687 18.7993C6.45672 20.0296 5.76468 21.6976 5.7627 23.4375V28.125Z" fill="#457AE4"/>
<path d="M8.5752 8.4375C8.5752 9.73544 8.96008 11.0042 9.68118 12.0834C10.4023 13.1626 11.4272 14.0038 12.6263 14.5005C13.8255 14.9972 15.145 15.1271 16.418 14.8739C17.691 14.6207 18.8603 13.9957 19.7781 13.0779C20.6959 12.1601 21.3209 10.9908 21.5741 9.71778C21.8273 8.44478 21.6974 7.12528 21.2007 5.92614C20.704 4.727 19.8628 3.70208 18.7836 2.98098C17.7044 2.25988 16.4356 1.875 15.1377 1.875C13.3972 1.875 11.728 2.5664 10.4973 3.79711C9.2666 5.02782 8.5752 6.69702 8.5752 8.4375Z" fill="#457AE4"/>
</svg>
